<svg width="25" height="25" viewBox="0 0 25 25" fill="none" xmlns="http://www.w3.org/2000/svg">
<path fill-rule="evenodd" clip-rule="evenodd" d="M19.7831 3.21669C20.3809 2.64317 20.4005 1.69362 19.827 1.09582C19.2535 0.498026 18.304 0.478346 17.7062 1.05187C17.1593 1.57654 16.5846 2.11034 15.998 2.65526C14.3668 4.17064 12.6429 5.77199 11.1661 7.50195C11.1599 7.50925 11.1537 7.51656 11.1474 7.52387C10.8306 7.31743 10.5293 7.11921 10.251 6.93102C7.7745 5.25627 5.25397 3.66249 2.73602 2.09576C2.03263 1.6581 1.10764 1.87351 0.669978 2.57689C0.232319 3.28027 0.447729 4.20527 1.15111 4.64293C3.6597 6.20383 6.14182 7.77375 8.57041 9.41611C8.82235 9.58649 9.07441 9.75356 9.3267 9.91893C8.36905 11.3102 7.51057 12.7539 6.69147 14.1314L6.69131 14.1316C6.4991 14.4549 6.30906 14.7745 6.12042 15.0889C5.97854 15.3253 5.80921 15.5845 5.61042 15.8887L5.61041 15.8887L5.60924 15.8905C5.41616 16.186 5.1995 16.5177 4.99254 16.86C4.59173 17.5228 4.14673 18.3516 3.95206 19.2276C3.79504 19.9342 3.25876 20.3007 1.91305 21.1081C1.20268 21.5343 0.972336 22.4557 1.39856 23.1661C1.82478 23.8765 2.74617 24.1068 3.45654 23.6806C3.52618 23.6388 3.59976 23.5954 3.67659 23.55C4.74003 22.9222 6.42531 21.9273 6.88062 19.8784C6.9648 19.4996 7.19501 19.0154 7.55967 18.4124C7.73544 18.1217 7.92408 17.8323 8.12061 17.5315L8.13952 17.5026C8.32438 17.2197 8.52098 16.9189 8.6929 16.6324C8.89071 16.3027 9.08621 15.9743 9.28056 15.6479L9.28057 15.6479C10.1238 14.2317 10.9452 12.8521 11.8384 11.5596C12.2251 11.8198 12.6132 12.0882 13.0029 12.3703C14.4596 13.425 15.7069 14.5172 16.538 15.7139C16.9508 16.3083 17.3402 16.9364 17.7442 17.5991L17.9236 17.8937C18.2667 18.4579 18.6248 19.0467 18.9993 19.619C19.3166 20.1039 19.7271 20.6084 20.0736 21.0341L20.0736 21.0341L20.0738 21.0343C20.1998 21.1891 20.3173 21.3335 20.4187 21.4628C20.8565 22.0204 21.1372 22.4556 21.2748 22.8684C21.5367 23.6543 22.3862 24.079 23.1721 23.8171C23.958 23.5551 24.3828 22.7056 24.1208 21.9197C23.8117 20.9924 23.2573 20.2203 22.7785 19.6103C22.6011 19.3844 22.4395 19.1861 22.2904 19.0031L22.2902 19.0029C21.9885 18.6326 21.7376 18.3248 21.5097 17.9765C21.1646 17.449 20.8356 16.9083 20.4916 16.3428L20.3057 16.0374C19.8994 15.371 19.4701 14.6766 19.0021 14.0027C17.8841 12.3928 16.3158 11.0651 14.7622 9.94032C14.4099 9.68523 14.0456 9.43217 13.6782 9.18326C14.9755 7.7019 16.423 6.35718 17.9221 4.96455C18.536 4.39419 19.1586 3.81579 19.7831 3.21669Z" fill="#71A479"/>
</svg>
