<svg width="15" height="15" viewBox="0 0 15 15" fill="none" xmlns="http://www.w3.org/2000/svg">
<path fill-rule="evenodd" clip-rule="evenodd" d="M5.72192 6.09989C5.71363 6.27644 5.69927 6.52636 5.68662 6.74039C5.67637 6.91362 5.66612 7.08105 5.6584 7.20314C5.65456 7.26395 5.65127 7.31462 5.6489 7.34944L5.64565 7.39475C5.64539 7.3981 5.64411 7.41452 5.64218 7.43166C5.64169 7.43597 5.63996 7.45135 5.63689 7.47076C5.63563 7.47876 5.63182 7.50252 5.62483 7.53247C5.62087 7.54874 5.60921 7.59034 5.60104 7.61554C5.58451 7.65999 5.51544 7.79552 5.45456 7.88086C5.23652 8.07298 4.54985 8.17137 4.18594 7.96663C4.07192 7.83522 3.96134 7.61963 3.9414 7.55376C3.92008 7.47177 3.91601 7.40272 3.9157 7.3975C3.91344 7.3658 3.91346 7.33987 3.91347 7.33528L3.91347 3.78756C3.91347 3.78172 3.91335 3.76818 3.91319 3.75087C3.91281 3.70844 3.91223 3.64338 3.91274 3.6137C3.91324 3.58369 3.91474 3.52264 3.92468 3.45373C3.92483 3.45273 3.92499 3.45158 3.92518 3.45026C3.92952 3.4194 3.94593 3.30271 4.01324 3.16727C4.02474 3.05042 4.04422 2.92841 4.07885 2.81627C4.11974 2.68383 4.20168 2.49319 4.37857 2.32968C4.56767 2.15488 4.7856 2.08384 4.96772 2.06288C5.2322 2.03245 5.50397 2.10585 5.63698 2.14178C5.64368 2.14359 5.65003 2.14531 5.65602 2.14691C5.71437 2.16254 5.77173 2.17847 5.83082 2.19487C5.96605 2.2324 6.1103 2.27243 6.29599 2.31725C6.86581 2.45477 7.37886 2.59014 7.74935 2.69108C7.93478 2.74161 8.08494 2.78363 8.18917 2.81314C8.2413 2.8279 8.28197 2.83954 8.30985 2.84756L8.34193 2.85682L8.35371 2.86024C8.81335 2.99438 9.07736 3.47577 8.94322 3.93541C8.80909 4.39504 8.32776 4.65891 7.86813 4.5248L7.85927 4.52223L7.83043 4.5139C7.80477 4.50652 7.76644 4.49555 7.71677 4.48148C7.61742 4.45335 7.47282 4.41288 7.29353 4.36403C7.043 4.29577 6.72561 4.21139 6.36997 4.12156C6.90575 4.81081 7.65257 5.74967 8.47169 6.70358C9.14115 6.04189 9.78753 5.42232 10.362 4.92554C10.8662 4.48951 11.3652 4.10322 11.8082 3.86957C12.0259 3.7547 12.2946 3.64144 12.5838 3.61203C12.8998 3.57989 13.2993 3.64791 13.6083 3.97363C13.8202 4.19706 13.9582 4.49753 14.0515 4.74108C14.1546 5.01029 14.2451 5.32555 14.3224 5.66031C14.4773 6.33117 14.5932 7.14161 14.6405 7.94407C14.6875 8.73992 14.67 9.57359 14.535 10.2761C14.4676 10.6268 14.3642 10.9816 14.2005 11.2925C14.038 11.6013 13.7821 11.9292 13.3821 12.1159C12.8464 12.3659 12.2912 12.2417 11.8878 12.0799C11.465 11.9103 11.0326 11.6301 10.618 11.3109C9.91081 10.7663 9.14277 10.0193 8.40113 9.22644C8.3086 9.31945 8.21575 9.41274 8.12269 9.50616C6.91834 10.7152 5.6714 11.9518 4.65072 12.7617C4.15231 13.1572 3.6328 13.513 3.15356 13.6866C2.91296 13.7738 2.59487 13.8482 2.25645 13.7836C1.87024 13.71 1.56159 13.4751 1.37562 13.1403C0.97351 12.4165 0.798938 11.4034 0.720876 10.4134C0.64031 9.3916 0.65467 8.26399 0.706682 7.22746C0.758865 6.1875 0.849961 5.2206 0.927775 4.5148C0.966737 4.1614 1.0025 3.87225 1.02864 3.67068C1.04171 3.56987 1.05238 3.49089 1.05986 3.43665L1.06857 3.37418L1.07094 3.35753L1.07178 3.35164C1.0718 3.35149 1.07188 3.35095 1.92988 3.47535L1.07178 3.35164C1.14049 2.87778 1.58042 2.54865 2.05428 2.61735C2.5281 2.68605 2.85653 3.12583 2.78789 3.59965L2.78735 3.6034L2.78541 3.61705L2.77757 3.67326C2.77069 3.72322 2.76063 3.79765 2.74818 3.89364C2.72328 4.08569 2.68887 4.36377 2.65127 4.70482C2.57596 5.38792 2.48839 6.31879 2.43844 7.31435C2.38831 8.31333 2.37705 9.35897 2.44945 10.2771C2.5063 10.9981 2.61045 11.5713 2.74921 11.971C2.94914 11.8645 3.22328 11.6809 3.57292 11.4034C4.49883 10.6687 5.67125 9.51017 6.89425 8.28245C7.00985 8.1664 7.12588 8.04976 7.24211 7.93292C6.69192 7.29533 6.17223 6.66239 5.72192 6.09989ZM5.6474 7.3315C5.64741 7.33286 5.64741 7.33384 5.6474 7.3344L5.6474 7.3315ZM2.49879 12.0752C2.4988 12.0752 2.49941 12.0751 2.50058 12.075ZM9.62756 7.99923C10.3515 8.77571 11.0609 9.46352 11.6759 9.93705C12.0343 10.213 12.3221 10.3859 12.5333 10.4706C12.5836 10.4908 12.6226 10.5033 12.6517 10.511C12.6562 10.5033 12.6611 10.4945 12.6662 10.4848C12.7226 10.3776 12.7834 10.2028 12.8322 9.94891C12.9295 9.44224 12.9521 8.76687 12.9096 8.04622C12.8675 7.33218 12.7642 6.61863 12.633 6.05042C12.5818 5.82877 12.5284 5.63845 12.4764 5.48419C12.2279 5.63748 11.8997 5.8881 11.4962 6.2371C10.9386 6.71926 10.3032 7.33008 9.62756 7.99923Z" fill="#FF4BED"/>
</svg>
