<svg width="73" height="44" viewBox="0 0 73 44" fill="none" xmlns="http://www.w3.org/2000/svg">
<path fill-rule="evenodd" clip-rule="evenodd" d="M62.3178 3.06004C62.9378 2.81205 63.4359 2.6083 63.8621 2.43398L63.8622 2.43396C64.3083 2.25148 64.6756 2.10125 65.0213 1.96628C65.6735 1.71163 65.9536 1.63302 66.1197 1.60542L66.1256 1.60445C66.3264 1.57101 66.3975 1.55917 68.1952 2.07278C68.467 2.15045 69.0013 2.4863 69.626 3.4646C70.2219 4.39768 70.7336 5.6649 71.0707 7.06225C71.4068 8.45525 71.5408 9.85965 71.4644 11.0295C71.3831 12.2743 71.0884 12.9158 70.9065 13.1317C70.0532 14.1451 69.485 15.2503 69.0402 16.2019C68.8839 16.5365 68.7479 16.8387 68.6211 17.1204L68.621 17.1206C68.4019 17.6076 68.2105 18.033 67.9896 18.457C67.9332 18.4691 67.8602 18.4819 67.7678 18.4937C67.452 18.5339 67.0533 18.54 66.5837 18.5125L55.256 7.96901L51.3846 9.98884L52.1974 15.8362C48.4815 15.0441 44.7613 14.147 41.0213 13.2178C48.0803 9.54309 55.059 5.96358 62.3178 3.06004ZM59.8106 17.2886C58.4996 17.072 57.1895 16.8361 55.8794 16.5841L55.2429 12.7454L59.8106 17.2886ZM52.8919 20.8328C50.752 20.3954 48.6197 19.9222 46.4956 19.4277C46.6843 19.9977 46.7793 20.6101 46.7804 21.2649C46.7781 22.219 46.4058 23.0879 45.6635 23.8714C46.5787 23.7808 47.339 23.9361 47.9446 24.3372C48.5537 24.7271 49.1581 25.4968 49.7579 26.6463L50.3325 27.7477C50.7233 28.4967 51.018 28.9893 51.2166 29.2253C51.5262 29.6016 51.8964 29.8048 52.3272 29.8348L52.5419 30.2464L48.7706 32.214C48.4772 31.9048 48.2502 31.6505 48.0896 31.4512C47.7607 31.0378 47.4668 30.592 47.2079 30.1138L46.3905 28.6014C45.8301 27.5634 45.2735 26.9668 44.7208 26.8117C44.1755 26.6527 43.3986 26.8364 42.3899 27.3626L38.8523 29.2083L42.2071 35.6384L38.8585 37.3854L30.3033 20.9876L37.4989 17.2334C37.0037 17.1094 36.5091 16.9853 36.015 16.8613L36.0137 16.861L34.6619 16.5219C27.2689 20.3314 19.7097 24.0303 11.7474 26.8319C9.7833 27.523 7.89895 27.8727 6.28116 27.3955C4.34803 26.8252 3.42888 25.3057 3.09309 23.8203C2.79074 22.4829 2.8906 20.9551 3.04633 19.6097C3.14208 18.7824 3.28642 17.8368 3.42645 16.9194L3.42646 16.9193C3.51199 16.359 3.5959 15.8092 3.66615 15.3034C3.90939 13.5521 4.13557 11.7774 4.36346 9.98951L4.36347 9.98941L4.36347 9.9894C4.78393 6.69057 5.21015 3.34648 5.75989 0.0200195H2.74561C1.64104 0.0200195 0.745605 0.91545 0.745605 2.02002V36.8148C1.45101 35.7704 2.56906 34.8489 4.09976 34.0502C5.82779 33.1487 7.53987 32.8404 9.23597 33.1255C10.9356 33.3992 12.2698 34.3921 13.2384 36.104L9.9455 37.822C9.37154 36.8666 8.57573 36.3902 7.55806 36.3927C6.88091 36.3969 6.14555 36.606 5.35199 37.02C4.46943 37.4805 3.85773 38.0261 3.51689 38.6568C3.17605 39.2875 3.17202 39.9218 3.50479 40.5596C3.81047 41.1455 4.29834 41.4477 4.9684 41.466C5.40275 41.4847 6.23274 41.3395 7.45839 41.0303L10.6381 40.2346C12.0314 39.8851 13.1729 39.7943 14.0626 39.9623C15.444 40.2229 16.5158 41.0837 17.2781 42.5447C17.5155 42.9999 17.6878 43.4594 17.7949 43.9234H24.2372C23.7128 43.8466 23.1946 43.7115 22.6827 43.5179C20.5397 42.7018 18.7775 40.9699 17.3961 38.3222C15.9025 35.4594 15.519 32.8526 16.2455 30.5015C16.8762 28.4553 18.2225 26.8943 20.2843 25.8186C23.0432 24.3791 25.5325 24.2315 27.7523 25.3756C28.987 26.024 29.8973 26.8465 30.4832 27.8428L27.0568 29.6305C26.4241 28.9604 25.829 28.5161 25.2715 28.2975C24.277 27.9105 23.168 28.0363 21.9442 28.6747C20.6983 29.3248 19.9787 30.3418 19.7856 31.7258C19.5885 33.1023 19.9698 34.7102 20.9294 36.5495C21.889 38.3888 22.987 39.5709 24.2233 40.0959C25.4631 40.6096 26.6689 40.5607 27.8407 39.9494C29.0422 39.3225 29.7531 38.4516 29.9733 37.3365C30.1013 36.7319 30.0597 35.9469 29.8485 34.9815L33.2416 33.2112C33.8774 35.1534 33.8794 37.0017 33.2473 38.7562C32.6079 40.5145 31.3352 41.8909 29.4291 42.8853C28.377 43.4342 27.3467 43.7803 26.3382 43.9234H31.9288L36.5451 41.5149L38.6073 43.9234H43.923L42.4857 38.4155L47.4139 35.8443L51.629 43.9234H55.7758L50.6734 34.1437L57.8155 30.4175C59.4619 29.5585 60.9952 29.2963 62.4153 29.631C63.8354 29.9658 65.0078 31.0194 65.9326 32.7919C66.9425 34.7276 67.167 36.3513 66.6059 37.6631C66.0448 38.9748 64.8557 40.1047 63.0387 41.0527L59.5567 42.8694L60.1066 43.9234H70.7456C71.8502 43.9234 72.7456 43.0279 72.7456 41.9234V39.584L65.7919 26.2559L69.2183 24.4683L72.7456 31.229V19.5263C72.5145 20.0287 72.2602 20.5582 71.9891 21.0462C71.1077 22.6326 69.4342 23.069 68.3677 23.2048C67.6009 23.3025 66.7811 23.2935 65.9864 23.232L65.9027 23.2757L65.8478 23.2207C65.4775 23.1891 65.1138 23.1467 64.7645 23.099C63.5964 22.9395 62.4334 22.6972 61.4839 22.4863C61.1485 22.4119 60.8552 22.3452 60.5996 22.2871L60.599 22.2869C60.3169 22.2228 60.0809 22.1691 59.885 22.127L57.0465 23.6079L57.6704 27.5707L54.0883 29.4396L52.8919 20.8328ZM10.5658 0.0200195C10.5603 0.0915388 10.5514 0.163429 10.5392 0.235527C9.95715 3.66298 9.52911 7.02461 9.09309 10.449L9.09308 10.4491C8.86236 12.2611 8.6294 14.0906 8.37021 15.9568C8.27849 16.6172 8.18563 17.2216 8.09755 17.7948L8.09754 17.7949C7.97048 18.6218 7.85338 19.384 7.76405 20.1557C7.61428 21.4497 7.61433 22.2817 7.72542 22.7731C7.73306 22.8069 7.74059 22.836 7.74766 22.8607C8.02792 22.8863 8.74355 22.8542 10.1711 22.3519C16.1245 20.2572 21.8737 17.6293 27.5948 14.7821C25.1964 14.209 22.8014 13.6614 20.4026 13.1584C20.1739 13.1105 18.2365 12.5652 16.6054 12.0224C16.1212 12.1149 15.5724 12.2325 15.0406 12.3718C15.1211 12.4664 15.2028 12.5628 15.2859 12.6613C15.8931 13.3807 16.5405 14.1744 17.1495 15.088C17.877 16.1792 17.5821 17.6535 16.4909 18.381C15.3997 19.1084 13.9254 18.8136 13.1979 17.7224C12.741 17.0369 12.2327 16.4071 11.6566 15.7245C11.53 15.5745 11.3978 15.4193 11.2615 15.2594C10.8011 14.719 10.2954 14.1254 9.8115 13.5033C9.25293 12.7851 8.95372 11.7597 9.34281 10.6931C9.65348 9.8415 10.2823 9.32903 10.6541 9.07011C11.2512 8.65435 11.9945 8.34793 12.6729 8.12097C12.7802 7.68357 13.0031 7.30479 13.2789 7.01542C13.6409 6.63564 14.0359 6.46317 14.2368 6.3882C14.4624 6.30399 14.6661 6.26214 14.8077 6.23905C15.0901 6.19297 15.3732 6.18294 15.6097 6.18294C17.1939 6.18294 19.6307 5.30271 21.4322 4.30188C21.9404 4.01952 22.3782 3.78963 22.7009 3.65585C22.7861 3.62054 22.9213 3.56735 23.0798 3.52296C23.1587 3.50085 23.2889 3.46791 23.45 3.44702C23.5764 3.43064 23.9116 3.394 24.3218 3.4905C24.7724 3.59649 25.5958 3.95144 25.9878 4.91389C26.3236 5.73845 26.0933 6.44142 26.0066 6.66935C25.8352 7.11948 25.5595 7.41676 25.5098 7.47027L25.5047 7.47583C25.2396 7.76609 24.8479 8.056 24.6219 8.22161C24.3184 8.44394 23.9438 8.70336 23.5387 8.97344L23.5369 8.97464C27.0587 9.74985 30.5753 10.6073 34.0742 11.4795C34.4508 11.2842 34.8277 11.0885 35.2047 10.8924C35.9294 10.5156 36.655 10.1374 37.3818 9.75864L37.382 9.75851C43.867 6.37863 50.4455 2.95 57.2569 0.0200195H10.5658ZM68.1527 18.4085C68.1533 18.4089 68.1459 18.413 68.1285 18.4194C68.1432 18.4113 68.152 18.4081 68.1527 18.4085ZM13.368 12.9675L13.3769 12.9616C13.3568 12.9774 13.3516 12.979 13.368 12.9675ZM46.9897 42.8166L47.5671 43.9234H46.6228L45.6189 40.135C45.7814 40.4465 46.0099 40.8935 46.3043 41.4758C46.5948 42.0507 46.8233 42.4977 46.9897 42.8166ZM12.7397 43.6388C13.0727 43.6647 13.3572 43.7596 13.5931 43.9234H10.5455C11.4667 43.6976 12.1981 43.6028 12.7397 43.6388ZM42.9148 23.2958C43.4346 22.6284 43.4546 21.8348 42.9748 20.9152C42.4563 19.9213 41.778 19.4261 40.9399 19.4293C40.4685 19.4299 39.862 19.6237 39.1203 20.0106L35.1377 22.0885L37.4361 26.4939L41.3186 24.4683C42.0899 24.0658 42.622 23.675 42.9148 23.2958ZM62.5512 34.5844C62.9962 35.4373 63.0987 36.1764 62.8588 36.8016C62.6115 37.4307 62.0836 37.9562 61.2752 38.3779L58.0824 40.0437L55.5634 35.2156L58.7562 33.5498C59.5646 33.128 60.2861 32.9828 60.9207 33.114C61.5627 33.2414 62.1062 33.7315 62.5512 34.5844Z" fill="#FF4BED"/>
</svg>
