<svg width="25" height="25" viewBox="0 0 25 25" fill="none" xmlns="http://www.w3.org/2000/svg">
<path fill-rule="evenodd" clip-rule="evenodd" d="M19.9056 3.57265C20.5034 2.99912 20.5231 2.04958 19.9496 1.45178C19.3761 0.853983 18.4265 0.834303 17.8287 1.40783C17.2818 1.93249 16.7072 2.4663 16.1206 3.01121C14.4893 4.5266 12.7655 6.12795 11.2887 7.85791C11.2824 7.86521 11.2762 7.87251 11.27 7.87982C10.9531 7.67339 10.6518 7.47517 10.3735 7.28697C7.89705 5.61223 5.37653 4.01844 2.85857 2.45172C2.15519 2.01406 1.2302 2.22947 0.792537 2.93285C0.354877 3.63623 0.570288 4.56123 1.27367 4.99889C3.78226 6.55979 6.26438 8.12971 8.69297 9.77207C8.94491 9.94245 9.19697 10.1095 9.44925 10.2749C8.49161 11.6662 7.63313 13.1099 6.81403 14.4873L6.81387 14.4876C6.62166 14.8108 6.43162 15.1304 6.24298 15.4448C6.1011 15.6813 5.93177 15.9404 5.73298 16.2447L5.73297 16.2447L5.73179 16.2465C5.53872 16.5419 5.32206 16.8737 5.1151 17.216C4.71429 17.8788 4.26929 18.7075 4.07462 19.5836C3.91759 20.2902 3.38132 20.6566 2.03561 21.4641C1.32524 21.8903 1.09489 22.8117 1.52112 23.5221C1.94734 24.2324 2.86873 24.4628 3.5791 24.0366C3.64874 23.9948 3.72232 23.9513 3.79914 23.906C4.86258 23.2782 6.54787 22.2832 7.00318 20.2344C7.08736 19.8555 7.31757 19.3714 7.68223 18.7683C7.858 18.4776 8.04663 18.1883 8.24317 17.8875L8.26208 17.8586C8.44694 17.5757 8.64354 17.2748 8.81546 16.9883C9.01327 16.6586 9.20877 16.3303 9.40312 16.0039L9.40313 16.0038C10.2464 14.5876 11.0678 13.2081 11.961 11.9155C12.3477 12.1757 12.7357 12.4441 13.1255 12.7263C14.5822 13.7809 15.8295 14.8731 16.6605 16.0698C17.0734 16.6643 17.4628 17.2924 17.8668 17.955L18.0461 18.2497C18.3893 18.8139 18.7474 19.4026 19.1219 19.975C19.4391 20.4599 19.8497 20.9643 20.1961 21.39L20.1962 21.3901L20.1963 21.3903C20.3223 21.5451 20.4398 21.6895 20.5413 21.8187C20.9791 22.3764 21.2597 22.8116 21.3973 23.2243C21.6593 24.0103 22.5088 24.435 23.2947 24.173C24.0806 23.9111 24.5053 23.0616 24.2434 22.2757C23.9343 21.3483 23.3799 20.5763 22.901 19.9663C22.7237 19.7403 22.5621 19.542 22.4129 19.359L22.4128 19.3589C22.1111 18.9886 21.8601 18.6807 21.6322 18.3324C21.2871 17.805 20.9582 17.2643 20.6142 16.6988L20.4282 16.3933C20.022 15.727 19.5926 15.0325 19.1246 14.3587C18.0067 12.7487 16.4384 11.4211 14.8848 10.2963C14.5324 10.0412 14.1682 9.78813 13.8008 9.53921C15.0981 8.05786 16.5456 6.71313 18.0446 5.32051C18.6586 4.75015 19.2812 4.17175 19.9056 3.57265Z" fill="#03292C"/>
</svg>
