<svg width="108" height="71" viewBox="0 0 108 71" fill="none" xmlns="http://www.w3.org/2000/svg">
<path d="M9.34326 65.9814C9.34326 65.7269 9.30583 65.4985 9.23096 65.2964C9.15609 65.0868 9.01758 64.8921 8.81543 64.7124C8.61328 64.5327 8.32129 64.353 7.93945 64.1733C7.5651 63.9862 7.07096 63.7915 6.45703 63.5894C5.73828 63.3498 5.04574 63.0802 4.37939 62.7808C3.71305 62.4738 3.11784 62.1182 2.59375 61.7139C2.06966 61.3021 1.65413 60.8229 1.34717 60.2764C1.0402 59.7223 0.886719 59.0785 0.886719 58.3447C0.886719 57.641 1.04395 57.0083 1.3584 56.4468C1.67285 55.8778 2.11084 55.3949 2.67236 54.998C3.24137 54.5938 3.90771 54.2868 4.67139 54.0771C5.43506 53.86 6.26986 53.7515 7.17578 53.7515C8.3737 53.7515 9.42936 53.9611 10.3428 54.3804C11.2637 54.7922 11.9824 55.3799 12.499 56.1436C13.0231 56.8997 13.2852 57.7944 13.2852 58.8276H9.36572C9.36572 58.4159 9.27962 58.0527 9.10742 57.7383C8.94271 57.4238 8.69189 57.1768 8.35498 56.9971C8.01807 56.8174 7.59505 56.7275 7.08594 56.7275C6.5918 56.7275 6.17627 56.8024 5.83936 56.9521C5.50244 57.1019 5.24788 57.304 5.07568 57.5586C4.90348 57.8057 4.81738 58.0789 4.81738 58.3784C4.81738 58.6255 4.88477 58.8501 5.01953 59.0522C5.16178 59.2469 5.36019 59.4303 5.61475 59.6025C5.87679 59.7747 6.19124 59.9395 6.55811 60.0967C6.93245 60.2539 7.35173 60.4074 7.81592 60.5571C8.68441 60.8341 9.45557 61.1449 10.1294 61.4893C10.8107 61.8262 11.3835 62.2118 11.8477 62.646C12.3193 63.0728 12.675 63.5594 12.9146 64.106C13.1616 64.6525 13.2852 65.2702 13.2852 65.959C13.2852 66.6927 13.1429 67.3441 12.8584 67.9131C12.5739 68.4821 12.1659 68.965 11.6343 69.3618C11.1027 69.7511 10.4663 70.0469 9.7251 70.249C8.98389 70.4512 8.15658 70.5522 7.24316 70.5522C6.40462 70.5522 5.57731 70.4474 4.76123 70.2378C3.95264 70.0207 3.21891 69.6912 2.56006 69.2495C1.9012 68.8003 1.37337 68.2275 0.976562 67.5312C0.58724 66.8275 0.392578 65.9927 0.392578 65.0269H4.3457C4.3457 65.506 4.40934 65.9103 4.53662 66.2397C4.6639 66.5692 4.85107 66.835 5.09814 67.0371C5.34521 67.2318 5.64844 67.374 6.00781 67.4639C6.36719 67.5462 6.77897 67.5874 7.24316 67.5874C7.74479 67.5874 8.14909 67.5163 8.45605 67.374C8.76302 67.2243 8.98763 67.0296 9.12988 66.79C9.27214 66.543 9.34326 66.2734 9.34326 65.9814Z" fill="#FF4BED"/>
<path d="M24.6167 64.791H28.5474C28.495 65.929 28.188 66.9323 27.6265 67.8008C27.0649 68.6693 26.2863 69.3468 25.2905 69.8335C24.3022 70.3127 23.1343 70.5522 21.7866 70.5522C20.6935 70.5522 19.7165 70.3688 18.8555 70.002C18.002 69.6351 17.2757 69.1073 16.6768 68.4185C16.0853 67.7297 15.6323 66.8949 15.3179 65.9141C15.0109 64.9333 14.8574 63.8289 14.8574 62.6011V61.7139C14.8574 60.486 15.0184 59.3817 15.3403 58.4009C15.6698 57.4126 16.134 56.5741 16.7329 55.8853C17.3394 55.189 18.0656 54.6574 18.9116 54.2905C19.7576 53.9237 20.6973 53.7402 21.7305 53.7402C23.153 53.7402 24.3547 53.9948 25.3354 54.5039C26.3162 55.013 27.0762 55.7131 27.6152 56.604C28.1543 57.4875 28.4725 58.4945 28.5698 59.625H24.6392C24.6242 59.0111 24.5194 58.4982 24.3247 58.0864C24.13 57.6672 23.8231 57.3527 23.4038 57.1431C22.9845 56.9334 22.4268 56.8286 21.7305 56.8286C21.2438 56.8286 20.8208 56.9185 20.4614 57.0981C20.1021 57.2778 19.8026 57.5623 19.563 57.9517C19.3234 58.341 19.1437 58.8464 19.0239 59.4678C18.9116 60.0817 18.8555 60.8229 18.8555 61.6914V62.6011C18.8555 63.4696 18.9079 64.2108 19.0127 64.8247C19.1175 65.4386 19.286 65.9403 19.5181 66.3296C19.7502 66.7189 20.0496 67.0072 20.4165 67.1943C20.7909 67.374 21.2476 67.4639 21.7866 67.4639C22.3856 67.4639 22.891 67.3703 23.3027 67.1831C23.7145 66.9884 24.0327 66.6965 24.2573 66.3071C24.4819 65.9103 24.6017 65.4049 24.6167 64.791Z" fill="#FF4BED"/>
<path d="M30.4116 53.9761H36.8467C38.1045 53.9761 39.1976 54.1632 40.126 54.5376C41.0544 54.9119 41.7694 55.466 42.271 56.1997C42.7801 56.9334 43.0347 57.8394 43.0347 58.9175C43.0347 59.8534 42.8887 60.6357 42.5967 61.2646C42.3047 61.8936 41.8966 62.4139 41.3726 62.8257C40.856 63.23 40.2533 63.5632 39.5645 63.8252L38.2729 64.5552H32.8711L32.8486 61.5117H36.8467C37.3483 61.5117 37.7638 61.4219 38.0933 61.2422C38.4227 61.0625 38.6698 60.8079 38.8345 60.4785C39.0067 60.1416 39.0928 59.741 39.0928 59.2769C39.0928 58.8052 39.0067 58.4009 38.8345 58.064C38.6623 57.7271 38.4077 57.4688 38.0708 57.2891C37.7414 57.1094 37.3333 57.0195 36.8467 57.0195H34.3535V70.3276H30.4116V53.9761ZM39.3623 70.3276L35.7461 63.0952L39.9238 63.0728L43.585 70.1592V70.3276H39.3623Z" fill="#FF4BED"/>
<path d="M52.3447 57.4126L48.3579 70.3276H44.124L50.1323 53.9761H52.8164L52.3447 57.4126ZM55.6465 70.3276L51.6484 57.4126L51.1318 53.9761H53.8496L59.8916 70.3276H55.6465ZM55.4893 64.2295V67.2729H47.1001V64.2295H55.4893Z" fill="#FF4BED"/>
<path d="M63.0474 53.9761H66.2593L69.9092 65.3525L73.5591 53.9761H76.771L71.2119 70.3276H68.6064L63.0474 53.9761ZM61.0933 53.9761H64.4175L65.0352 66.5093V70.3276H61.0933V53.9761ZM75.4009 53.9761H78.7363V70.3276H74.7832V66.5093L75.4009 53.9761Z" fill="#FF4BED"/>
<path d="M87.7881 64.7798H83.7227V61.7363H87.7881C88.3421 61.7363 88.7913 61.6427 89.1357 61.4556C89.4801 61.2684 89.731 61.0101 89.8882 60.6807C90.0529 60.3438 90.1353 59.9657 90.1353 59.5464C90.1353 59.0972 90.0529 58.6816 89.8882 58.2998C89.731 57.918 89.4801 57.611 89.1357 57.3789C88.7913 57.1393 88.3421 57.0195 87.7881 57.0195H85.2051V70.3276H81.2632V53.9761H87.7881C89.0983 53.9761 90.2251 54.2157 91.1685 54.6948C92.1193 55.174 92.8493 55.8328 93.3584 56.6714C93.8675 57.5024 94.1221 58.4533 94.1221 59.5239C94.1221 60.5796 93.8675 61.5005 93.3584 62.2866C92.8493 63.0728 92.1193 63.6867 91.1685 64.1284C90.2251 64.5627 89.0983 64.7798 87.7881 64.7798Z" fill="#FF4BED"/>
<path d="M107.048 67.2954V70.3276H98.7827V67.2954H107.048ZM100.187 53.9761V70.3276H96.2446V53.9761H100.187Z" fill="#FF4BED"/>
<path fill-rule="evenodd" clip-rule="evenodd" d="M89.7443 4.75965C89.0895 5.02736 88.3349 5.33584 87.4358 5.69548C75.5472 10.4509 64.1556 16.3873 52.6906 22.362C51.7907 22.8309 50.8904 23.3001 49.9893 23.769C51.7243 24.2043 53.4581 24.639 55.1904 25.0696C65.0247 27.5145 74.8324 29.8337 84.6917 31.4326C85.2284 31.5196 86.0415 31.7044 86.9616 31.9136C87.3146 31.9938 87.6834 32.0776 88.0583 32.1609C89.4624 32.4727 91.0633 32.8037 92.6233 33.0167C94.2015 33.2322 95.6444 33.3131 96.7582 33.1713C97.9375 33.0211 98.3261 32.6813 98.4385 32.4789C98.922 31.6086 99.3202 30.7241 99.7473 29.7755C99.9334 29.3621 100.125 28.9366 100.331 28.4947C100.985 27.0958 101.755 25.6204 102.868 24.2979C103.569 23.4654 104.071 21.9557 104.206 19.8873C104.338 17.8662 104.105 15.5194 103.554 13.233C103.001 10.9438 102.147 8.79006 101.088 7.13134C100.01 5.44407 98.8382 4.4466 97.7196 4.12698C95.1526 3.39356 94.5333 3.21727 93.645 3.36486C93.1608 3.44531 92.561 3.63626 91.5565 4.02848C91.0299 4.23411 90.4441 4.47361 89.7443 4.75965ZM45.9692 25.8539C46.9156 26.0908 47.8625 26.3284 48.81 26.5661C50.693 27.0386 52.5783 27.5116 54.4666 27.981C64.3118 30.4286 74.2214 32.7738 84.2115 34.3939C84.6494 34.4649 85.3111 34.6153 86.172 34.811C86.5469 34.8962 86.9596 34.99 87.408 35.0896C88.8341 35.4062 90.5319 35.7589 92.2173 35.9891C93.8846 36.2168 95.6339 36.3387 97.1372 36.1473C98.5749 35.9642 100.228 35.4346 101.061 33.9359C101.609 32.9492 102.09 31.8822 102.539 30.8853C102.713 30.4984 102.882 30.122 103.049 29.765C103.673 28.4313 104.309 27.2447 105.163 26.2303C106.47 24.6786 107.048 22.4055 107.199 20.0827C107.354 17.7127 107.081 15.0601 106.47 12.5294C105.86 10.0015 104.896 7.52028 103.616 5.51668C102.355 3.54165 100.668 1.84943 98.5437 1.24241C98.3637 1.19098 98.1893 1.14073 98.0199 1.09192C96.0271 0.517664 94.729 0.143626 93.1533 0.405432C92.3385 0.54081 91.4902 0.83378 90.4653 1.23397C89.9361 1.44063 89.3082 1.69715 88.5764 1.99611C87.9117 2.26761 87.1614 2.57412 86.3216 2.91005C74.286 7.72429 62.762 13.7301 51.3202 19.6931C50.2207 20.2661 49.122 20.8387 48.0237 21.4098C47.215 21.8303 46.4065 22.2501 45.5979 22.6686C38.9556 21.0095 32.2961 19.3842 25.6263 17.9857L25.6216 17.9844C25.5606 17.9678 24.907 17.7892 23.9097 17.4964C24.0098 17.4409 24.1107 17.3844 24.2122 17.3271C25.5143 16.5906 26.9765 15.6737 28.1723 14.8766C28.7708 14.4777 29.3123 14.1023 29.7404 13.7887C30.1195 13.5109 30.5347 13.193 30.7704 12.9349C30.7717 12.9336 30.7731 12.932 30.7747 12.9302C30.8202 12.8807 31.0064 12.678 31.1194 12.3811C31.1763 12.2317 31.3222 11.7832 31.1087 11.259C30.8597 10.6478 30.3365 10.4213 30.047 10.3532C29.7829 10.2911 29.5645 10.3142 29.4761 10.3256C29.3658 10.3399 29.2732 10.363 29.211 10.3804C29.0862 10.4154 28.9685 10.4606 28.8742 10.4997C28.5084 10.6514 27.9393 10.9454 27.1642 11.3761C24.314 12.9595 20.2378 14.497 17.3016 14.497C16.9919 14.497 16.6904 14.5111 16.4229 14.5547C16.289 14.5766 16.1241 14.612 15.9534 14.6757C15.7983 14.7336 15.5284 14.8547 15.2869 15.1081C15.0028 15.4061 14.8071 15.8424 14.8485 16.3435C14.8662 16.558 14.9241 16.7411 14.9924 16.8895C14.7725 16.9482 14.5541 17.0091 14.3387 17.0722C13.1413 17.4228 11.8642 17.8877 10.9807 18.5029C10.5501 18.8028 10.0162 19.271 9.76454 19.9609C9.46333 20.7866 9.67814 21.5937 10.1602 22.2134C10.863 23.1171 11.5883 23.9685 12.2824 24.7833C12.4946 25.0323 12.7038 25.2779 12.9086 25.5205C13.7971 26.5732 14.6304 27.6021 15.3916 28.7439C15.8511 29.4332 16.7824 29.6195 17.4717 29.16C18.161 28.7004 18.3473 27.7691 17.8878 27.0798C17.0305 25.7939 16.1092 24.6615 15.2012 23.5856C14.9775 23.3206 14.7561 23.0607 14.5367 22.8031C13.9793 22.1487 13.4345 21.5091 12.8963 20.8376C13.3865 20.5531 14.1775 20.2453 15.1817 19.9513C16.4563 19.5781 17.8651 19.2849 18.9686 19.088C19.002 19.0995 19.0354 19.1109 19.0687 19.1222C21.5999 19.9837 24.7718 20.8718 25.0106 20.9219C30.5266 22.0785 36.0318 23.3904 41.547 24.7531C31.142 30.0694 20.6767 35.0797 9.74309 38.9267C7.00996 39.8883 5.43941 39.9543 4.58282 39.7016C3.92543 39.5076 3.50988 39.0722 3.27755 38.0445C3.0241 36.9233 3.06832 35.3516 3.29835 33.3643C3.43674 32.1686 3.62591 30.9348 3.8248 29.6376C3.95786 28.7698 4.09527 27.8736 4.22473 26.9415C4.61111 24.1595 4.96185 21.4057 5.31096 18.6648C5.97699 13.4356 6.6371 8.25288 7.52751 3.00937C7.6662 2.19263 7.11654 1.41811 6.2998 1.27942C5.48307 1.14072 4.70854 1.69039 4.56985 2.50712C3.6698 7.80739 2.99498 13.1035 2.32335 18.3744C1.97603 21.1002 1.62956 23.8193 1.25325 26.5288C1.13735 27.3632 1.0056 28.2249 0.874148 29.0846C0.667046 30.4391 0.460685 31.7887 0.318245 33.0193C0.0844495 35.0392 -0.022873 37.0504 0.35139 38.706C0.746778 40.455 1.73818 41.9902 3.73397 42.579C5.53056 43.109 7.85939 42.7697 10.7388 41.7566C22.9407 37.4633 34.535 31.7576 45.9692 25.8539ZM17.401 15.2216C17.4013 15.2216 17.4066 15.2251 17.4158 15.2322C17.4052 15.2252 17.4007 15.2217 17.401 15.2216Z" fill="#FF4BED"/>
</svg>
