<svg width="25" height="25" viewBox="0 0 25 25" fill="none" xmlns="http://www.w3.org/2000/svg">
<path fill-rule="evenodd" clip-rule="evenodd" d="M11.1218 0.534499C12.8378 0.481972 14.865 0.694548 16.4282 1.98417C16.8591 2.3397 17.0407 2.88541 16.9516 3.3991C16.9661 3.48285 16.9736 3.56899 16.9736 3.65689C16.9736 4.07212 16.9835 4.62443 16.9992 5.27381C17.2836 4.79728 17.8225 4.49768 18.4127 4.54687C19.0232 4.59774 19.3683 4.61823 19.8245 4.55562C20.391 4.47787 20.9269 4.72719 21.2416 5.15895C21.9679 4.99223 22.7217 5.38842 22.9842 6.10646C23.0887 6.39227 23.2042 6.68295 23.3295 6.99698L23.3453 7.03672L23.3455 7.03719L23.3456 7.03737C23.4637 7.33347 23.5902 7.65062 23.7095 7.97233C23.9584 8.64381 24.2013 9.40043 24.3173 10.2123C24.5001 11.4926 24.471 12.8631 24.4454 14.0646V14.0646V14.0647L24.4454 14.065C24.437 14.4591 24.429 14.835 24.429 15.1836C24.429 15.5804 24.4502 16.0114 24.4746 16.5056L24.4746 16.5057L24.4849 16.7168C24.5123 17.2817 24.5391 17.9107 24.526 18.5451C24.5003 19.7844 24.3227 21.2576 23.514 22.5156C23.013 23.2949 22.2807 23.6514 21.6636 23.8191C21.1263 23.9653 20.5647 23.9954 20.2069 24.0146H20.2069L20.1331 24.0186C17.494 24.1653 13.7137 24.2915 11.0582 24.2915C10.1512 24.2915 9.60995 23.6961 9.36435 23.3009C9.12234 22.9114 8.9984 22.475 8.92686 22.1445C8.81396 21.623 8.77001 21.0603 8.75537 20.6248C8.67746 20.6249 8.59963 20.6248 8.52191 20.6244C6.99446 20.6168 5.43036 20.5128 4.20046 20.2384C3.59615 20.1036 2.96384 19.9049 2.44231 19.5849C1.92717 19.2689 1.26493 18.6635 1.21317 17.68C0.968699 13.035 0.833208 8.15344 1.77655 3.36685C2.10395 1.70559 3.65045 1.31334 4.38811 1.20111C4.82137 1.13519 5.26136 1.11825 5.60268 1.10782L5.7631 1.10304C6.05523 1.09445 6.24354 1.08892 6.39253 1.07139C6.72667 1.03208 7.11929 0.975374 7.54928 0.91327C8.61746 0.758988 9.91622 0.571403 11.1218 0.534499ZM20.3091 7.51524C20.2838 7.52003 20.2583 7.52421 20.2325 7.52775C19.4218 7.63903 18.7897 7.58868 18.1636 7.5365C17.6911 7.49713 17.2881 7.24277 17.0427 6.87765C17.0495 7.11736 17.0567 7.36355 17.064 7.61501L17.0641 7.61525L17.0641 7.61557C17.1015 8.90097 17.143 10.3241 17.1724 11.7251C17.2057 13.3097 17.2229 14.8535 17.1973 16.0755C17.1845 16.6842 17.1608 17.2367 17.1198 17.6847C17.0994 17.9079 17.0728 18.1272 17.0361 18.3258C17.0051 18.4932 16.9464 18.768 16.8153 19.0301L16.5948 19.4712L16.1557 19.6954C15.7564 19.8992 15.2314 20.0308 14.7624 20.1256C14.2499 20.2291 13.6401 20.3191 12.9801 20.393C12.5918 20.4365 12.1802 20.4751 11.7532 20.5077C11.7611 20.7565 11.7811 21.0368 11.8189 21.2883C14.3382 21.268 17.6141 21.154 19.9667 21.0233C20.4053 20.9989 20.6667 20.9813 20.8765 20.9243C20.9455 20.9055 20.982 20.8894 20.999 20.88C21.3461 20.3313 21.5046 19.545 21.5266 18.4828C21.5374 17.962 21.5157 17.4243 21.4884 16.862L21.4783 16.657C21.4544 16.1725 21.429 15.6602 21.429 15.1836C21.429 14.6926 21.4387 14.2288 21.4481 13.784L21.4481 13.7837C21.4717 12.6583 21.4927 11.6539 21.3474 10.6366C21.2755 10.1335 21.1161 9.60718 20.8966 9.01522C20.7903 8.72859 20.6759 8.44185 20.5541 8.13632L20.5429 8.10844C20.4666 7.91704 20.3873 7.71798 20.3091 7.51524ZM13.975 3.95466C13.2943 3.62825 12.3755 3.49753 11.2136 3.53309C10.1813 3.56469 9.18776 3.70907 8.19335 3.85356L8.19335 3.85356L8.19334 3.85357C7.71161 3.92357 7.22968 3.99359 6.74305 4.05084C6.44986 4.08534 6.10355 4.09495 5.82539 4.10267H5.82538L5.69433 4.10642C5.35512 4.11679 5.07608 4.13096 4.83936 4.16698C4.77098 4.17738 4.71559 4.18834 4.67142 4.19864C3.88362 8.38039 3.96405 12.7101 4.18787 17.1136C4.33286 17.1727 4.54945 17.2425 4.85363 17.3104C5.77479 17.5159 7.09055 17.6173 8.53678 17.6244C9.96544 17.6315 11.441 17.5466 12.6462 17.4117C13.2403 17.3451 13.7519 17.2683 14.1501 17.1886C14.1723 16.8721 14.1882 16.477 14.1979 16.0127C14.2221 14.8562 14.2062 13.364 14.1731 11.788C14.1453 10.4645 14.1049 9.07138 14.0677 7.78907V7.78907V7.78905V7.78903C14.023 6.24555 13.9829 4.8626 13.975 3.95466ZM14.0749 17.832C14.0749 17.8319 14.0756 17.8287 14.0773 17.8229C14.0758 17.8292 14.075 17.8322 14.0749 17.832ZM21.0115 20.8712C21.012 20.8714 21.0096 20.8737 21.0028 20.8778C21.0075 20.8731 21.011 20.8711 21.0115 20.8712Z" fill="#304E57"/>
</svg>
