<svg width="25" height="25" viewBox="0 0 25 25" fill="none" xmlns="http://www.w3.org/2000/svg">
<path fill-rule="evenodd" clip-rule="evenodd" d="M19.7821 3.1244C20.3799 2.55088 20.3996 1.60134 19.826 1.00354C19.2525 0.405741 18.303 0.386061 17.7052 0.959584C17.1583 1.48425 16.5837 2.01805 15.9971 2.56297C14.3658 4.07835 12.6419 5.6797 11.1651 7.40967C11.1589 7.41697 11.1527 7.42427 11.1465 7.43158C10.8296 7.22514 10.5283 7.02693 10.25 6.83873C7.77352 5.16399 5.25299 3.5702 2.73504 2.00347C2.03166 1.56581 1.10666 1.78122 0.669002 2.48461C0.231342 3.18799 0.446752 4.11298 1.15013 4.55064C3.65873 6.11155 6.14084 7.68147 8.56943 9.32382C8.82138 9.4942 9.07344 9.66128 9.32572 9.82664C8.36807 11.2179 7.5096 12.6616 6.6905 14.0391L6.69033 14.0394C6.49813 14.3626 6.30809 14.6822 6.11944 14.9966C5.97756 15.2331 5.80823 15.4922 5.60944 15.7964L5.60944 15.7964L5.60826 15.7982C5.41519 16.0937 5.19853 16.4255 4.99156 16.7677C4.59076 17.4305 4.14576 18.2593 3.95108 19.1353C3.79406 19.8419 3.25779 20.2084 1.91208 21.0158C1.20171 21.4421 0.971359 22.3634 1.39758 23.0738C1.8238 23.7842 2.74519 24.0145 3.45556 23.5883C3.5252 23.5465 3.59878 23.5031 3.67561 23.4577C4.73905 22.8299 6.42434 21.835 6.87964 19.7861C6.96383 19.4073 7.19403 18.9231 7.55869 18.3201C7.73446 18.0294 7.9231 17.74 8.11963 17.4393L8.13855 17.4103C8.32341 17.1274 8.52 16.8266 8.69192 16.5401C8.88973 16.2104 9.08524 15.882 9.27958 15.5556L9.27959 15.5556C10.1228 14.1394 10.9442 12.7598 11.8374 11.4673C12.2242 11.7275 12.6122 11.9959 13.002 12.278C14.4587 13.3327 15.7059 14.4249 16.537 15.6216C16.9498 16.2161 17.3392 16.8441 17.7432 17.5068L17.9226 17.8014C18.2657 18.3656 18.6238 18.9544 18.9983 19.5268C19.3156 20.0116 19.7262 20.5161 20.0726 20.9418L20.0726 20.9418L20.0728 20.942C20.1988 21.0968 20.3163 21.2412 20.4178 21.3705C20.8555 21.9281 21.1362 22.3633 21.2738 22.7761C21.5358 23.562 22.3852 23.9868 23.1712 23.7248C23.9571 23.4628 24.3818 22.6133 24.1198 21.8274C23.8107 20.9001 23.2564 20.128 22.7775 19.518C22.6001 19.2921 22.4386 19.0938 22.2894 18.9108L22.2893 18.9106C21.9875 18.5404 21.7366 18.2325 21.5087 17.8842C21.1636 17.3567 20.8347 16.816 20.4906 16.2505L20.3047 15.9451C19.8984 15.2787 19.4691 14.5843 19.0011 13.9104C17.8831 12.3005 16.3149 10.9728 14.7612 9.84804C14.4089 9.59295 14.0447 9.33988 13.6773 9.09097C14.9746 7.60962 16.422 6.26489 17.9211 4.87226C18.535 4.3019 19.1576 3.72351 19.7821 3.1244Z" fill="#71A479"/>
</svg>
