<svg width="25" height="25" viewBox="0 0 25 25" fill="none" xmlns="http://www.w3.org/2000/svg">
<path fill-rule="evenodd" clip-rule="evenodd" d="M10.7976 0.17903C12.5136 0.126503 14.5408 0.33908 16.104 1.62871C16.5349 1.98423 16.7165 2.52994 16.6273 3.04363C16.6419 3.12738 16.6494 3.21352 16.6494 3.30142C16.6494 3.71665 16.6593 4.26896 16.675 4.91834C16.9594 4.44181 17.4982 4.14221 18.0885 4.1914C18.699 4.24227 19.0441 4.26277 19.5003 4.20015C20.0668 4.1224 20.6027 4.37172 20.9174 4.80348C21.6437 4.63677 22.3975 5.03295 22.66 5.75099C22.7645 6.03681 22.88 6.32749 23.0052 6.64151L23.0211 6.68125L23.0213 6.68172L23.0214 6.6819C23.1395 6.978 23.266 7.29515 23.3853 7.61687C23.6342 8.28834 23.8771 9.04496 23.993 9.85688C24.1759 11.1371 24.1468 12.5076 24.1212 13.7092V13.7092V13.7092L24.1212 13.7095C24.1128 14.1036 24.1048 14.4795 24.1048 14.8281C24.1048 15.2249 24.126 15.6559 24.1503 16.1501L24.1503 16.1502L24.1607 16.3613C24.1881 16.9262 24.2149 17.5553 24.2018 18.1896C24.176 19.429 23.9985 20.9021 23.1898 22.1602C22.6888 22.9394 21.9564 23.2959 21.3394 23.4637C20.802 23.6098 20.2404 23.64 19.8827 23.6592H19.8827L19.8089 23.6632C17.1698 23.8098 13.3894 23.9361 10.7339 23.9361C9.82698 23.9361 9.28573 23.3406 9.04013 22.9454C8.79812 22.556 8.67418 22.1196 8.60264 21.7891C8.48974 21.2675 8.44579 20.7049 8.43115 20.2693C8.35324 20.2694 8.27541 20.2693 8.1977 20.2689C6.67024 20.2614 5.10615 20.1573 3.87624 19.883C3.27194 19.7482 2.63962 19.5494 2.11809 19.2295C1.60295 18.9134 0.940715 18.308 0.888953 17.3245C0.644481 12.6795 0.50899 7.79797 1.45233 3.01138C1.77973 1.35012 3.32623 0.957871 4.06389 0.845638C4.49715 0.779719 4.93714 0.762783 5.27846 0.75235L5.43888 0.74757C5.73101 0.738986 5.91932 0.733452 6.06831 0.715924C6.40245 0.676613 6.79507 0.619905 7.22506 0.557801C8.29324 0.403519 9.592 0.215934 10.7976 0.17903ZM19.9849 7.15977C19.9596 7.16456 19.9341 7.16874 19.9083 7.17228C19.0976 7.28356 18.4655 7.23321 17.8394 7.18103C17.3669 7.14166 16.9638 6.8873 16.7184 6.52218C16.7253 6.76189 16.7325 7.00808 16.7398 7.25954L16.7398 7.25978L16.7398 7.2601C16.7773 8.5455 16.8188 9.96862 16.8482 11.3696C16.8815 12.9542 16.8986 14.498 16.8731 15.72C16.8603 16.3287 16.8366 16.8812 16.7956 17.3292C16.7752 17.5524 16.7486 17.7717 16.7119 17.9703C16.6809 18.1377 16.6222 18.4125 16.4911 18.6746L16.2706 19.1157L15.8314 19.3399C15.4321 19.5437 14.9072 19.6753 14.4381 19.7701C13.9257 19.8736 13.3159 19.9636 12.6559 20.0376C12.2676 20.081 11.8559 20.1196 11.429 20.1522C11.4369 20.401 11.4568 20.6814 11.4947 20.9328C14.014 20.9125 17.2899 20.7985 19.6425 20.6678C20.0811 20.6434 20.3424 20.6258 20.5523 20.5688C20.6213 20.55 20.6578 20.5339 20.6748 20.5245C21.0219 19.9759 21.1804 19.1895 21.2024 18.1273C21.2132 17.6066 21.1914 17.0689 21.1642 16.5066L21.1541 16.3015C21.1301 15.817 21.1048 15.3048 21.1048 14.8281C21.1048 14.3371 21.1145 13.8733 21.1239 13.4285L21.1239 13.4283C21.1475 12.3028 21.1685 11.2984 21.0232 10.2811C20.9513 9.77801 20.7918 9.25171 20.5724 8.65975C20.4661 8.37313 20.3517 8.08638 20.2298 7.78085L20.2187 7.75297C20.1424 7.56157 20.0631 7.36251 19.9849 7.15977ZM13.6508 3.59919C12.9701 3.27278 12.0513 3.14206 10.8894 3.17763C9.85712 3.20922 8.86354 3.3536 7.86913 3.4981L7.86913 3.4981L7.86912 3.4981C7.38739 3.5681 6.90546 3.63813 6.41883 3.69538C6.12564 3.72987 5.77933 3.73948 5.50117 3.7472H5.50116L5.37011 3.75095C5.0309 3.76132 4.75187 3.77549 4.51514 3.81151C4.44676 3.82191 4.39137 3.83287 4.34721 3.84317C3.5594 8.02492 3.63983 12.3546 3.86365 16.7581C4.00864 16.8173 4.22523 16.8871 4.52941 16.9549C5.45057 17.1604 6.76633 17.2618 8.21256 17.269C9.64122 17.276 11.1168 17.1912 12.322 17.0562C12.9161 16.9897 13.4276 16.9128 13.8259 16.8332C13.8481 16.5166 13.864 16.1215 13.8737 15.6572C13.8979 14.5007 13.8819 13.0086 13.8488 11.4326C13.821 10.109 13.7807 8.71591 13.7435 7.43361V7.4336V7.43358V7.43356C13.6988 5.89008 13.6587 4.50713 13.6508 3.59919ZM13.7507 17.4766C13.7507 17.4764 13.7514 17.4733 13.7531 17.4674C13.7516 17.4738 13.7508 17.4767 13.7507 17.4766ZM20.6873 20.5158C20.6878 20.5159 20.6854 20.5183 20.6786 20.5223C20.6833 20.5176 20.6867 20.5156 20.6873 20.5158Z" fill="#71A479"/>
</svg>
